<svg width="20" height="20" viewBox="0 0 20 20" fill="none" xmlns="http://www.w3.org/2000/svg">
<path fill-rule="evenodd" clip-rule="evenodd" d="M1.33691 19C1.33691 19 6.00358 17 7.33691 15.6667C8.67025 14.3333 4.67025 14.3333 4.67025 7.66667C4.67025 1 10.0036 1 10.0036 1C10.0036 1 15.3369 1 15.3369 7.66667C15.3369 14.3333 11.3369 14.3333 12.6702 15.6667C14.0036 17 18.6702 19 18.6702 19" fill="#AA67AA"/>
<path d="M1.33691 19C1.33691 19 6.00358 17 7.33691 15.6667C8.67025 14.3333 4.67025 14.3333 4.67025 7.66667C4.67025 1 10.0036 1 10.0036 1C10.0036 1 15.3369 1 15.3369 7.66667C15.3369 14.3333 11.3369 14.3333 12.6702 15.6667C14.0036 17 18.6702 19 18.6702 19" stroke="#AA67AA" stroke-width="1.5" stroke-linecap="round"/>
</svg>
